# xmcd
# Copyright (C) 1995-1998 Ti Kan
#
# Track frame offsets:
#       150
#       7969
#       28307
#       67261
#       84836
#       109950
#       136218
#       167006
#       200361
#
# Disc length: 3691 seconds
#
# Revision: 0
# Processed by: cddbd v1.5.2PL0 Copyright (c) Steve Scherf et al.
# Submitted via: CD-Transfer v1.0
#
DISCID=740e6909
DTITLE=Wattstax - 
DYEAR=72
DGENRE=
TTITLE0=Prior, Richard Introduction
TTITLE1=Bar-Kays, The I Can't Turn You Loose (Live)
TTITLE2=Bar-Kays, The Son Of Shaft (Feel It ) (Live)
TTITLE3=King, Albert Killing Floor
TTITLE4=King, Albert I'll Play The Blues For You (Live)
TTITLE5=King, Albert Angel Of Mercy (Live)
TTITLE6=Soul Children, The I Don't Know What This World I Coming To (Live)
TTITLE7=Soul Children, The Hearsay (Live)
TTITLE8=Hayes, Isaac Ain't No Sunshine (Live)
EXTD=
EXTT0=
EXTT1=
EXTT2=
EXTT3=
EXTT4=
EXTT5=
EXTT6=
EXTT7=
EXTT8=
PLAYORDER=
